<?xml version="1.0" encoding="UTF-8"?>
<svg version="1.1" xmlns="http://www.w3.org/2000/svg" width="512" height="512">
<path d="M0 0 C4.52966583 2.47551505 7.16586374 5.37259122 8.8125 10.3125 C8.8125 16.9125 8.8125 23.5125 8.8125 30.3125 C54.3525 30.3125 99.8925 30.3125 146.8125 30.3125 C146.8125 23.7125 146.8125 17.1125 146.8125 10.3125 C149.79587825 4.34574351 151.48993214 2.06121993 157.1875 -0.9375 C163.14674663 -2.64014189 167.68444547 -1.86806361 173.015625 1.03515625 C176.70370089 3.65689715 178.41560947 7.1218284 179.8125 11.3125 C179.89356686 12.86671729 179.92006898 14.42417027 179.91015625 15.98046875 C179.90693359 16.87314453 179.90371094 17.76582031 179.90039062 18.68554688 C179.89201172 19.61431641 179.88363281 20.54308594 179.875 21.5 C179.87048828 22.44037109 179.86597656 23.38074219 179.86132812 24.34960938 C179.84954626 26.67063712 179.83309558 28.99153644 179.8125 31.3125 C180.92431641 31.35117188 180.92431641 31.35117188 182.05859375 31.390625 C212.48435501 33.02922169 239.84577761 46.20897862 260.39599609 68.65332031 C277.73548117 88.96341003 285.98079684 117.13103632 285.95294189 143.50546265 C285.95739858 144.84423775 285.95739858 144.84423775 285.9619453 146.21005881 C285.9705766 149.18350591 285.97213582 152.15691249 285.97363281 155.13037109 C285.97826507 157.26980677 285.98329028 159.40924163 285.98867798 161.54867554 C286.00176795 167.35087794 286.00824073 173.15306879 286.01268864 178.95528364 C286.01562592 182.58707934 286.01973204 186.21887192 286.02419281 189.85066605 C286.03786112 201.23312279 286.04753005 212.61557236 286.0513947 223.99803674 C286.05586866 237.10039941 286.07338863 250.2026574 286.1023953 263.30498827 C286.12408051 273.45566752 286.13410268 283.60631749 286.13543582 293.75701964 C286.1364793 299.80831346 286.14228885 305.85950879 286.16025543 311.91077805 C286.17685387 317.61210095 286.17883501 323.31325261 286.17011642 329.01459122 C286.16935221 331.09369112 286.17360626 333.17280068 286.18357468 335.25187683 C286.33804289 369.51040101 278.03091703 401.77105234 253.6875 426.9375 C227.24622746 453.16512923 190.81883339 458.46930241 155.12670898 458.45776367 C153.26416457 458.46076131 151.40162076 458.46416522 149.53907776 458.46794128 C144.50974405 458.47672544 139.4804274 458.47911707 134.45108676 458.47975707 C131.2990093 458.48047092 128.14693609 458.48261159 124.9948597 458.48525429 C113.96979628 458.4944903 102.9447449 458.4985915 91.91967773 458.49780273 C81.68943277 458.4972029 71.45924069 458.50774074 61.22900909 458.5235464 C52.4081585 458.53668237 43.58732505 458.54198408 34.76646477 458.54134732 C29.51502592 458.54109405 24.26363411 458.54384991 19.01220512 458.55452538 C14.06514175 458.56430857 9.11816938 458.56421662 4.17110252 458.55700874 C2.37139501 458.55597536 0.57168151 458.55825006 -1.2280159 458.5643692 C-16.62562572 458.61326626 -32.35586754 458.12799166 -47.3125 454.125 C-48.54250732 453.80354004 -48.54250732 453.80354004 -49.79736328 453.47558594 C-68.5373268 448.36304332 -84.19715453 439.8863203 -98.1875 426.3125 C-99.21423828 425.39597656 -99.21423828 425.39597656 -100.26171875 424.4609375 C-119.94773612 406.28327902 -129.37973219 375.32521154 -130.4640007 349.22277832 C-130.60964862 343.60173874 -130.59390004 337.9818294 -130.57568359 332.359375 C-130.57975951 330.21846246 -130.58510705 328.07755204 -130.59161377 325.93664551 C-130.60517198 320.17630248 -130.60003668 314.41612248 -130.59047651 308.65577698 C-130.58281982 302.59440712 -130.58994207 296.53305016 -130.59463501 290.47167969 C-130.60007519 280.29750085 -130.59294674 270.1233876 -130.57861328 259.94921875 C-130.56229019 248.2282676 -130.56757993 236.50747308 -130.5840925 224.78652573 C-130.59775706 214.67809596 -130.59960282 204.56971303 -130.59177649 194.46127701 C-130.5871272 188.44368172 -130.58639886 182.42615976 -130.59638596 176.40856934 C-130.60512607 170.74813089 -130.59890653 165.08789211 -130.58170319 159.42747498 C-130.57777565 157.36450022 -130.57880728 155.30150832 -130.58549118 153.23854065 C-130.68600556 119.03081515 -122.36750522 86.81423718 -98.0625 61.6875 C-80.04685229 43.81741724 -52.41648853 31.59949398 -26.859375 31.26953125 C-25.97765625 31.28371094 -25.0959375 31.29789063 -24.1875 31.3125 C-24.2189209 30.46655273 -24.2189209 30.46655273 -24.25097656 29.60351562 C-24.33498501 27.00669751 -24.38642229 24.41016638 -24.4375 21.8125 C-24.47101563 20.925625 -24.50453125 20.03875 -24.5390625 19.125 C-24.62850743 13.04274472 -23.79751885 8.3278017 -20.1875 3.3125 C-13.86626389 -1.71868793 -7.56870114 -3.50193635 0 0 Z M8.8125 63.3125 C8.4825 70.2425 8.1525 77.1725 7.8125 84.3125 C2.38392857 92.45535714 2.38392857 92.45535714 -3.1875 94.3125 C-8.43968338 94.93339765 -13.11577587 94.79876305 -17.57226562 91.72973633 C-21.68435485 88.12171366 -23.35417766 82.91703537 -23.796875 77.59375 C-23.86216606 76.00064818 -23.90893971 74.40668338 -23.9375 72.8125 C-23.96714844 71.99007812 -23.99679688 71.16765625 -24.02734375 70.3203125 C-24.09718437 68.31821467 -24.14470388 66.31535844 -24.1875 64.3125 C-44.62391399 65.48620389 -64.01625266 73.51047002 -78.25 88.375 C-93.12609084 105.91811908 -97.1875 126.75043526 -97.1875 149.3125 C18.3125 149.3125 133.8125 149.3125 252.8125 149.3125 C252.8125 124.46079016 247.53686371 103.08829742 230.18359375 84.59375 C216.83891796 71.75472091 198.06569555 65.36520006 179.8125 64.3125 C179.78671875 65.5190625 179.7609375 66.725625 179.734375 67.96875 C179.67805114 69.58336738 179.6207048 71.19794933 179.5625 72.8125 C179.54832031 73.60398437 179.53414063 74.39546875 179.51953125 75.2109375 C179.28521113 80.92834853 178.12704965 85.56845925 174.8125 90.3125 C170.61265219 94.00046556 166.48131335 94.91486293 160.953125 94.6328125 C156.33185851 93.94130912 153.58994075 92.1739884 150.5 88.75 C144.55944579 80.16919947 147.57650332 79.35656968 146.8125 63.3125 C101.2725 63.3125 55.7325 63.3125 8.8125 63.3125 Z M-98.1875 182.3125 C-110.96779289 287.07782321 -110.96779289 287.07782321 -74.55859375 404.03125 C-54.33631837 423.48727771 -25.63918714 425.6288821 0.9206543 425.5871582 C2.78054507 425.59151748 4.64043405 425.59670462 6.50032043 425.60264587 C11.50477622 425.6159184 16.50915594 425.61662764 21.51362586 425.61408257 C25.71514536 425.61300455 29.91664999 425.61791745 34.11816627 425.622688 C44.04452801 425.6337432 53.9708519 425.63424354 63.8972168 425.62817383 C74.08209436 425.62214103 84.26683354 425.63443668 94.45168751 425.6557439 C103.24548038 425.67345345 112.03922958 425.6793465 120.83303958 425.67610615 C126.06326336 425.67430755 131.29338845 425.67678503 136.52359581 425.69082069 C141.44942097 425.7035474 146.37503313 425.70131729 151.30085564 425.68840981 C153.09005053 425.68607614 154.87926113 425.68866048 156.66843796 425.69703293 C182.8740348 425.81064541 210.59732049 422.59061069 230.56176758 403.84204102 C249.25913242 385.17590611 252.32773797 360.55345459 253.8125 335.3125 C253.8125 284.8225 253.8125 234.3325 253.8125 182.3125 C137.6525 182.3125 21.4925 182.3125 -98.1875 182.3125 Z " fill="#000000" transform="translate(178.1875,27.6875)"/>
<path d="M0 0 C5.07797445 3.23143829 7.59295183 7.36512556 9.75 12.9375 C10.72594531 20.98904885 9.60268711 26.91006311 5.25 33.75 C0.35760485 38.64239515 -4.88497609 40.73601492 -11.6875 41.3125 C-18.00033827 41.21827853 -23.13036937 38.58512162 -27.875 34.5625 C-32.51535234 28.966781 -34.39041094 24.53253277 -34.28125 17.21875 C-33.45500817 10.70062004 -30.15124844 5.00652656 -25 1 C-16.45234907 -3.97794231 -8.93493521 -4.45786015 0 0 Z " fill="#000000" transform="translate(268,269)"/>
<path d="M0 0 C4.70384475 4.20400546 8.62375425 8.78408899 9.37109375 15.171875 C9.53612936 24.06438191 8.63386987 29.04786983 2.578125 35.51953125 C-1.83801554 39.63888815 -6.46601507 40.71313378 -12.3125 41.375 C-19.01648957 40.69323835 -24.93003737 38.67996426 -29.5 33.5625 C-34.29523621 27.55451509 -34.68446344 21.43284514 -34 14 C-32.12392429 7.97680957 -29.3193076 2.82026546 -23.69921875 -0.26171875 C-15.5664996 -3.77890381 -7.96846502 -4.25828025 0 0 Z " fill="#000000" transform="translate(343,269)"/>
<path d="M0 0 C5.40064244 5.1658319 7.62667287 10.6400558 8.4375 17.9375 C8.17227988 23.56237669 6.13250716 28.67947597 2.31640625 32.83203125 C-4.10847582 38.51079798 -8.90519965 39.51296418 -17.51171875 39.37890625 C-23.86513022 38.68878205 -27.66524406 35.66047551 -31.875 31.0625 C-35.5907522 25.70744536 -36.90568411 20.4888254 -36 14 C-34.15925018 6.87949472 -31.27874893 1.94664219 -25 -2 C-16.80615703 -6.00587878 -7.54832308 -4.81299016 0 0 Z " fill="#000000" transform="translate(270,345)"/>
<path d="M0 0 C5.52013044 3.08039076 8.60528998 6.87836995 10.625 12.9375 C11.25606462 20.49993008 11.64723759 27.81621319 6.625 33.9375 C0.01363784 40.00345804 -5.16287999 41.32199493 -14.078125 41.203125 C-18.64175604 40.83543909 -21.87871331 39.94112811 -25.375 36.9375 C-31.39623492 29.62222775 -33.27835729 23.35822606 -32.375 13.9375 C-30.62572371 7.76234396 -26.69323211 3.4092773 -21.375 -0.0625 C-14.32781802 -3.40245107 -7.07213637 -3.21364642 0 0 Z " fill="#000000" transform="translate(341.375,343.0625)"/>
<path d="M0 0 C4.81052467 4.26511371 7.35526873 8.64869517 7.9609375 15.04296875 C8.13540392 21.4706789 7.58535567 26.26111691 3.72265625 31.52734375 C-1.33884932 36.70388354 -6.6629749 39.14008994 -13.77734375 39.90234375 C-21.21982483 39.10493506 -27.33451273 36.27103853 -32.27734375 30.52734375 C-36.17958337 24.04798101 -36.17087643 17.90320316 -35.27734375 10.52734375 C-33.20625628 4.83627859 -29.20778633 0.88004471 -24.27734375 -2.47265625 C-16.20244978 -5.95594385 -7.1641868 -5.07524527 0 0 Z " fill="#000000" transform="translate(195.27734375,270.47265625)"/>
<path d="M0 0 C4.84221203 4.40374401 8.40628227 8.93147116 9.37109375 15.54296875 C9.55104365 22.70920869 8.23914481 28.13285444 4 34 C-1.99503459 39.70643336 -7.7350792 40.36691848 -15.703125 40.26953125 C-21.32109236 39.81024245 -24.96544574 38.21748567 -28.78125 34.05859375 C-34.30507898 26.98444484 -34.71386843 20.86036695 -34 12 C-32.46855782 5.58449899 -28.652174 2.54340387 -23.21875 -0.87109375 C-16.09476078 -4.49579953 -6.82421488 -4.18884734 0 0 Z " fill="#000000" transform="translate(194,344)"/>
</svg>
