<?xml version="1.0" encoding="UTF-8"?>
<svg version="1.1" xmlns="http://www.w3.org/2000/svg" width="512" height="512">
<path d="M0 0 C0.67238205 -0.00511093 1.3447641 -0.01022186 2.03752136 -0.01548767 C4.24393803 -0.02930413 6.45003955 -0.02843305 8.65649414 -0.02612305 C10.20056777 -0.0300142 11.74464034 -0.03434974 13.28871155 -0.03910828 C16.51900712 -0.04655328 19.74919336 -0.04629163 22.97949219 -0.04101562 C27.10633707 -0.03522164 31.23273304 -0.05215834 35.35950375 -0.0753603 C38.54666228 -0.09013568 41.73371362 -0.09096421 44.92090034 -0.08785057 C46.44184826 -0.08836182 47.96280249 -0.09356249 49.48371696 -0.10366249 C51.61573844 -0.11608489 53.74689721 -0.1092018 55.87890625 -0.09765625 C57.69375771 -0.09860039 57.69375771 -0.09860039 59.54527283 -0.0995636 C65.18686553 0.51080984 70.42018818 2.79011212 74.67633057 6.6056366 C80.6033273 14.05565762 81.76842766 25.90540519 83.89477539 35.00512695 C84.24720982 36.49169775 84.60022729 37.97813043 84.95379639 39.46443176 C85.8735911 43.33781074 86.78556231 47.2129889 87.69580078 51.08862305 C88.6297143 55.05867429 89.57117508 59.02693459 90.51196289 62.99536133 C92.34999657 70.75341397 94.17975192 78.51338781 96.00415039 86.2746582 C96.80056944 86.27525529 97.59698849 86.27585238 98.41754144 86.27646756 C145.61488887 86.31235783 192.8121723 86.36899115 240.00946059 86.45257916 C245.67590316 86.46259667 251.34234601 86.47244079 257.00878906 86.48217773 C258.13688065 86.48411911 259.26497224 86.48606048 260.42724843 86.48806068 C278.69556916 86.51908574 296.96387733 86.53606275 315.23221945 86.54785243 C333.97581446 86.56026135 352.71934351 86.58775694 371.46289688 86.62927127 C383.02961809 86.65441401 394.59622991 86.66777491 406.16297884 86.66608778 C414.09364388 86.66605803 422.02419746 86.68067638 429.95481908 86.70682248 C434.53108088 86.7214769 439.1071141 86.72966409 443.68339539 86.72046089 C447.87525003 86.71217346 452.06664539 86.72233008 456.25843192 86.74699482 C457.77270379 86.75267817 459.2870192 86.75166338 460.80127793 86.74317065 C476.42296118 86.66308176 476.42296118 86.66308176 483.00415039 91.2746582 C488.29054827 96.87544123 489.37363399 102.14383078 489.29690552 109.58718872 C488.70254667 117.07358236 486.64281901 124.26604869 484.78149414 131.52075195 C484.32721621 133.33536193 483.87423897 135.15029794 483.42245483 136.9655304 C482.19939003 141.86539523 480.95942903 146.7608375 479.71622086 151.65562439 C478.41405525 156.79410228 477.1268496 161.93632125 475.83886719 167.07836914 C474.22649162 173.51266389 472.61297731 179.94665876 470.99305725 186.37905884 C467.3759953 200.7485257 463.8146643 215.13080622 460.29581261 229.52462959 C459.50301153 232.7668967 458.70898051 236.00885998 457.914505 239.25071716 C457.65631076 240.3043662 457.39811651 241.35801523 457.1320982 242.44359303 C456.61705006 244.54538154 456.10199037 246.64716723 455.58691883 248.74895 C454.32935008 253.88262273 453.07443849 259.01691873 451.82492065 264.15255737 C450.64999035 268.98047429 449.46699915 273.80634823 448.27812576 278.63084984 C447.84448876 280.39684083 447.41379475 282.1635576 446.98633957 283.93105507 C441.8408981 305.19476069 441.8408981 305.19476069 436.81665039 310.6496582 C428.95253187 315.19337113 421.46083336 315.70798575 412.51733398 315.65560913 C410.66547517 315.66262909 410.66547517 315.66262909 408.77620506 315.66979086 C405.37046243 315.67964792 401.96521999 315.67615294 398.55950832 315.66683221 C394.87846134 315.66002209 391.19745689 315.67053264 387.51641846 315.67877197 C380.31360906 315.69209062 373.11089361 315.68923992 365.90808058 315.68053405 C360.05262451 315.67375055 354.19719471 315.67284367 348.34173584 315.6761055 C347.50739466 315.6765652 346.67305348 315.6770249 345.81342924 315.67749853 C344.11832062 315.67845773 342.423212 315.67943037 340.7281034 315.6804163 C324.84437236 315.68896472 308.96069332 315.67914467 293.07697082 315.6630152 C279.45696818 315.64961252 265.83704226 315.65194076 252.21704102 315.66577148 C236.38896993 315.68183698 220.56094439 315.6881408 204.73286629 315.67893469 C203.04409918 315.67797908 201.35533206 315.67703596 199.66656494 315.6761055 C198.42030494 315.67541126 198.42030494 315.67541126 197.14886796 315.67470299 C191.30250158 315.67211602 185.45616415 315.6764778 179.60980225 315.68354416 C172.48208706 315.69197013 165.35447095 315.68965599 158.22676706 315.67370193 C154.59220587 315.66583394 150.95780968 315.66270234 147.32324982 315.67264938 C143.37906277 315.68328032 139.43514417 315.67056057 135.4909668 315.65560913 C134.34825506 315.6623013 133.20554333 315.66899346 132.02820396 315.67588842 C124.67012555 315.62180491 118.13353282 314.81581662 111.76977539 310.8996582 C107.53653939 306.36093094 106.0640817 301.68224924 104.62719727 295.80664062 C104.31026539 294.55654725 104.31026539 294.55654725 103.98693085 293.28119946 C103.31495222 290.61496728 102.65785701 287.9454245 102.00415039 285.2746582 C101.79509064 284.42741306 101.58603088 283.58016792 101.37063599 282.70724869 C99.81601857 276.3987236 98.29832807 270.08156921 96.78540039 263.76293945 C96.28960922 261.69896543 95.79364799 259.63503224 95.29753113 257.57113647 C93.97210765 252.05476127 92.64932166 246.53775695 91.32717514 241.02059555 C90.21824206 236.39442572 89.10785172 231.76860613 87.9974966 227.14277744 C84.327968 211.8546206 80.66466173 196.56497636 77.00415039 181.2746582 C76.61772999 179.66058327 76.61772999 179.66058327 76.22350311 178.01390076 C69.64458071 150.53196947 63.08319737 123.04589037 56.54620361 95.55395508 C56.01528719 93.32148767 55.48412618 91.08907861 54.95288086 88.85668945 C53.12225755 81.16344257 51.29512659 73.46938836 49.47525024 65.77359009 C48.96051255 63.59834872 48.44473666 61.42335271 47.92782593 59.24862671 C47.24556884 56.37655413 46.56751698 53.50352535 45.89086914 50.63012695 C45.69517334 49.80992065 45.49947754 48.98971436 45.29785156 48.14465332 C44.58958883 45.11923272 44.00415039 42.39363762 44.00415039 39.2746582 C43.34317856 39.28354065 42.68220673 39.2924231 42.00120544 39.30157471 C35.10668608 39.39023592 28.21232933 39.45047071 21.31738281 39.49438477 C18.7460268 39.51446969 16.1747163 39.541743 13.60351562 39.57641602 C9.90231073 39.62506901 6.20171106 39.64765904 2.50024414 39.6652832 C0.78266151 39.69625092 0.78266151 39.69625092 -0.96961975 39.72784424 C-8.48926328 39.72994666 -13.06885916 38.87586693 -18.73803711 33.67700195 C-23.58398495 27.41069009 -23.53791008 21.97600791 -22.99584961 14.2746582 C-21.30384654 8.90006021 -17.67888637 5.29362559 -12.99584961 2.2746582 C-8.53270423 0.50850469 -4.78605515 0.01823764 0 0 Z M105.00415039 126.2746582 C108.38813717 142.37627936 108.38813717 142.37627936 112.08862305 158.39624023 C112.36884811 159.56474014 112.64907318 160.73324005 112.93778992 161.93714905 C113.84547439 165.71951791 114.75682909 169.50099169 115.66821289 173.2824707 C116.3084579 175.94646859 116.94785231 178.61067041 117.58724976 181.27487183 C119.08785577 187.52555591 120.59100556 193.77562499 122.09523809 200.02543724 C124.7923827 211.23202917 127.48474472 222.43977089 130.17669904 233.64761055 C131.26944044 238.19669843 132.36381083 242.74539204 133.45864868 247.29397583 C134.03194138 249.67831957 134.6052151 252.06266788 135.1784668 254.44702148 C135.43616348 255.51625351 135.69386017 256.58548553 135.95936584 257.68711853 C136.200345 258.69014511 136.44132416 259.69317169 136.68960571 260.72659302 C136.89642282 261.58591494 137.10323994 262.44523685 137.31632423 263.33059883 C138.24475461 267.30450143 139.11887516 271.29091968 140.00415039 275.2746582 C228.44415039 275.2746582 316.88415039 275.2746582 408.00415039 275.2746582 C422.16300122 219.5524694 422.16300122 219.5524694 436.04779053 163.76348877 C436.86497248 160.44079693 437.68497536 157.11880316 438.50489235 153.79678535 C439.30873024 150.53905985 440.11137577 147.28104163 440.91358566 144.02291489 C441.28731106 142.50532113 441.6613101 140.98779473 442.03560257 139.47034073 C442.54012717 137.42379163 443.04313563 135.3768764 443.5456543 133.32983398 C443.82889557 132.17830841 444.11213684 131.02678284 444.40396118 129.84036255 C445.04211346 127.55153434 445.04211346 127.55153434 445.00415039 126.2746582 C332.80415039 126.2746582 220.60415039 126.2746582 105.00415039 126.2746582 Z " fill="#000000" transform="translate(22.995849609375,20.725341796875)"/>
<path d="M0 0 C13.49430902 10.49557368 22.63298439 24.43516774 25.66015625 41.40625 C28.01471694 60.55807846 23.78811481 78.3628256 11.84765625 93.71484375 C0.66940655 106.68459924 -14.66737876 115.47907091 -31.90234375 116.96484375 C-49.75882937 118.07748191 -66.89532621 113.34845154 -80.46484375 101.46484375 C-81.96444387 99.98527168 -83.44563193 98.48666 -84.90234375 96.96484375 C-85.52238281 96.37574219 -86.14242187 95.78664063 -86.78125 95.1796875 C-90.9194267 90.96744947 -93.564642 86.186665 -96.21484375 80.96484375 C-96.55273926 80.30025146 -96.89063477 79.63565918 -97.23876953 78.95092773 C-104.17990098 64.65571145 -104.772358 47.02859182 -99.90234375 31.96484375 C-96.08456678 21.81017315 -90.75840873 13.49526873 -82.90234375 5.96484375 C-82.22816406 5.25972656 -81.55398437 4.55460937 -80.859375 3.828125 C-59.38766271 -17.32131019 -23.74408958 -16.64962405 0 0 Z M-55.90234375 33.96484375 C-62.20428814 41.76007496 -63.58773669 48.03311211 -62.90234375 57.96484375 C-60.8448557 65.22656628 -55.78244683 71.57278419 -49.27734375 75.46484375 C-43.18835903 78.11840907 -35.76042787 78.17667786 -29.46484375 76.19921875 C-27.48078466 75.25228146 -25.71627627 74.2029934 -23.90234375 72.96484375 C-23.01546875 72.42859375 -22.12859375 71.89234375 -21.21484375 71.33984375 C-15.83239354 65.81192191 -12.90234375 58.63228431 -12.90234375 50.96484375 C-14.0767965 43.98523885 -16.7013082 37.86121613 -21.90234375 32.96484375 C-32.94602312 25.63883863 -45.59788739 24.93762042 -55.90234375 33.96484375 Z " fill="#000000" transform="translate(211.90234375,374.03515625)"/>
<path d="M0 0 C14.31211417 10.59096449 22.21084196 26.24631158 24.8203125 43.55078125 C27.02218638 60.65200172 22.40972685 77.39686461 12.046875 91.171875 C9.8903263 93.63810111 7.65485546 95.92682368 5.2890625 98.19140625 C4.69996094 98.81144531 4.11085938 99.43148437 3.50390625 100.0703125 C-7.69833467 111.07559094 -24.01975621 115.99392154 -39.3359375 116.44140625 C-54.45422167 116.26982421 -67.66694147 111.09249284 -79.7109375 102.19140625 C-80.61779297 101.53398437 -80.61779297 101.53398437 -81.54296875 100.86328125 C-94.39236267 90.7694007 -101.17713518 74.94602599 -103.7109375 59.19140625 C-105.51184467 41.49158125 -100.36280384 24.45809154 -89.4609375 10.44140625 C-65.89825887 -16.89759483 -29.1348429 -19.43722228 0 0 Z M-55.69921875 32.4375 C-61.27898785 37.30219189 -63.56806663 43.14590369 -64.62109375 50.38671875 C-64.83742029 57.13986901 -62.35905262 63.35811539 -58.23828125 68.65625 C-52.90594312 74.01586351 -46.99351597 76.33751529 -39.5234375 76.50390625 C-31.39460542 76.41368614 -26.80181966 74.32818209 -20.8984375 68.87890625 C-14.98223674 62.46293511 -14.14288762 56.92249468 -14.359375 48.3515625 C-15.29247868 39.96399718 -20.04020403 35.17921256 -26.3984375 30.00390625 C-36.68311315 24.37644222 -46.37598257 25.68506891 -55.69921875 32.4375 Z " fill="#000000" transform="translate(444.7109375,374.80859375)"/>
</svg>
