<?xml version="1.0" encoding="UTF-8"?>
<svg version="1.1" xmlns="http://www.w3.org/2000/svg" width="512" height="512">
<path d="M0 0 C39.6 0 79.2 0 120 0 C120 37.95 120 75.9 120 115 C86.01 115 52.02 115 17 115 C8.7867717 82.14708681 8.7867717 82.14708681 6.75 69.625 C6.62992584 68.90728424 6.50985168 68.18956848 6.38613892 67.45010376 C2.64657006 45.02522822 1.03398323 22.7476311 0 0 Z " fill="#0065FF" transform="translate(126,266)"/>
<path d="M0 0 C33.99 0 67.98 0 103 0 C103 37.95 103 75.9 103 115 C63.4 115 23.8 115 -17 115 C-15.38175849 87.48989429 -13.21330392 60.7070751 -8.0625 33.75 C-7.83401367 32.55028564 -7.60552734 31.35057129 -7.37011719 30.11450195 C-5.34003293 19.91311914 -2.66165105 10.11427399 0 0 Z " fill="#0066FF" transform="translate(143,131)"/>
<path d="M0 0 C39.6 0 79.2 0 120 0 C118.44113627 26.50068342 116.51855237 52.41783391 111.625 78.4375 C111.45250732 79.35724609 111.28001465 80.27699219 111.10229492 81.22460938 C108.84187883 92.59821576 105.81718315 103.7312674 103 115 C69.01 115 35.02 115 0 115 C0 77.05 0 39.1 0 0 Z " fill="#0066FF" transform="translate(266,266)"/>
<path d="M0 0 C33.99 0 67.98 0 103 0 C111.2132283 32.85291319 111.2132283 32.85291319 113.25 45.375 C113.37007416 46.09271576 113.49014832 46.81043152 113.61386108 47.54989624 C117.35342994 69.97477178 118.96601677 92.2523689 120 115 C80.4 115 40.8 115 0 115 C0 77.05 0 39.1 0 0 Z " fill="#0066FF" transform="translate(266,131)"/>
<path d="M0 0 C28.71 0 57.42 0 87 0 C97.55422485 22.28114134 97.55422485 22.28114134 100.1875 29.375 C100.51081299 30.24036377 100.83412598 31.10572754 101.16723633 31.99731445 C110.84643964 58.44010463 117 86.79029803 117 115 C83.67 115 50.34 115 16 115 C14.68 99.16 13.36 83.32 12 67 C9.8068605 49.16246536 6.73517818 31.86698871 2.71435547 14.37475586 C1.70454237 9.6042 0.87229217 4.79760692 0 0 Z " fill="#0065FF" transform="translate(389,131)"/>
<path d="M0 0 C42.57 0.495 42.57 0.495 86 1 C84.87955067 7.1624713 83.78563369 13.07217213 82.30004883 19.11157227 C74.55640109 50.8855274 72.32318916 83.4753517 70 116 C36.67 116 3.34 116 -31 116 C-31 75.05162887 -18.13021092 36.26042184 0 0 Z " fill="#0065FF" transform="translate(36,130)"/>
<path d="M0 0 C49.995 0.495 49.995 0.495 101 1 C101 9.40078201 100.88755673 17.19423341 99.8125 25.4375 C99.68085449 26.46174072 99.54920898 27.48598145 99.41357422 28.54125977 C97.9610468 39.19776727 95.67085373 49.58945867 93 60 C92.82275391 60.71607422 92.64550781 61.43214844 92.46289062 62.16992188 C87.76167018 80.92076662 79.61040764 98.77918472 71 116 C42.29 115.67 13.58 115.34 -16 115 C-13.76772934 102.72251139 -13.76772934 102.72251139 -12.6328125 97.78515625 C-5.32897563 65.33035932 -2.45929561 33.20049071 0 0 Z " fill="#0065FF" transform="translate(406,266)"/>
<path d="M0 0 C33.33 0 66.66 0 101 0 C102.32 16.17 103.64 32.34 105 49 C107.55652551 67.77027939 110.78558546 85.98786238 115.41503906 104.32641602 C116.11342881 107.51843025 116.53790254 110.76531778 117 114 C73.935 114.495 73.935 114.495 30 115 C19.42293188 92.67063396 19.42293188 92.67063396 16.3125 84.1875 C15.9422168 83.18090332 15.57193359 82.17430664 15.19042969 81.13720703 C5.89462408 55.35366282 0 27.45226309 0 0 Z " fill="#0065FF" transform="translate(5,266)"/>
<path d="M0 0 C0 34.32 0 68.64 0 104 C-31.35 104 -62.7 104 -95 104 C-91.61738871 92.72462903 -91.61738871 92.72462903 -88.99609375 87.2421875 C-88.71675491 86.65567413 -88.43741608 86.06916077 -88.14961243 85.46487427 C-87.25499423 83.59685694 -86.34786892 81.735387 -85.4375 79.875 C-84.97071838 78.914729 -84.97071838 78.914729 -84.49450684 77.93505859 C-68.50261716 45.11920092 -46.11771054 14.92234989 -10.7421875 1.91015625 C-6.85983977 0.62157075 -4.14035634 0 0 0 Z " fill="#0065FF" transform="translate(246,6)"/>
<path d="M0 0 C16.18444416 2.02305552 29.77622218 9.41712147 42 20 C42.94746094 20.80179688 43.89492188 21.60359375 44.87109375 22.4296875 C68.26877315 42.93688635 84.99635268 72.79103821 95 102 C95 102.66 95 103.32 95 104 C63.65 104 32.3 104 0 104 C0 69.68 0 35.36 0 0 Z " fill="#0065FF" transform="translate(266,6)"/>
<path d="M0 0 C31.35 0 62.7 0 95 0 C91.61738871 11.27537097 91.61738871 11.27537097 88.99609375 16.7578125 C88.71675491 17.34432587 88.43741608 17.93083923 88.14961243 18.53512573 C87.25499423 20.40314306 86.34786892 22.264613 85.4375 24.125 C85.12631226 24.76518066 84.81512451 25.40536133 84.49450684 26.06494141 C79.60008622 36.10844556 74.46783282 45.86720535 68 55 C67.60393555 55.55993652 67.20787109 56.11987305 66.79980469 56.69677734 C51.19224934 78.42555815 30.95624446 98.08751925 4 104 C2.68 104 1.36 104 0 104 C0 69.68 0 35.36 0 0 Z " fill="#0065FF" transform="translate(266,402)"/>
<path d="M0 0 C31.35 0 62.7 0 95 0 C95 34.32 95 68.64 95 104 C78.81690126 101.97711266 65.22195432 94.58377068 53 84 C52.0409375 83.18660156 51.081875 82.37320313 50.09375 81.53515625 C42.32766339 74.79850715 36.01732877 67.31456822 30 59 C29.58540527 58.43361816 29.17081055 57.86723633 28.74365234 57.28369141 C0 17.58031114 0 17.58031114 0 0 Z " fill="#0065FF" transform="translate(151,402)"/>
<path d="M0 0 C26.73 0 53.46 0 81 0 C84.63 9.24 88.26 18.48 92 28 C103.63125535 52.71641762 117.32134392 74.8392033 137 94 C138.18885328 95.18614518 139.37625462 96.3737467 140.5625 97.5625 C141.15289062 98.15289062 141.74328125 98.74328125 142.3515625 99.3515625 C145.17578125 102.17578125 145.17578125 102.17578125 148 105 C115.89713138 101.99757344 83.32172092 81.90238439 58 63 C57.36304199 62.52820313 56.72608398 62.05640625 56.06982422 61.5703125 C38.06742095 48.07433532 21.11210634 31.30034985 8 13 C7.19520906 11.92520627 6.38790431 10.85229037 5.578125 9.78125 C0 2.31810345 0 2.31810345 0 0 Z " fill="#0065FF" transform="translate(49,402)"/>
<path d="M0 0 C7.65550208 1.17662927 14.77365773 3.0205408 22.0625 5.625 C23.05983154 5.97836426 24.05716309 6.33172852 25.0847168 6.69580078 C57.84125061 18.49830677 86.92925432 36.85329037 112 61 C112.65935547 61.63212402 113.31871094 62.26424805 113.99804688 62.91552734 C123.48822189 72.06182409 132.1961992 81.37833873 140 92 C140.81415186 93.08144676 141.6292406 94.16218889 142.4453125 95.2421875 C148 102.69359756 148 102.69359756 148 105 C121.6 105 95.2 105 68 105 C64.37 95.76 60.74 86.52 57 77 C43.66953482 48.69333319 26.90317546 22.90480688 2.421875 3.046875 C1.62265625 2.37140625 0.8234375 1.6959375 0 1 C0 0.67 0 0.34 0 0 Z " fill="#0065FF" transform="translate(314,5)"/>
<path d="M0 0 C-1.39412109 1.17755859 -1.39412109 1.17755859 -2.81640625 2.37890625 C-32.57633233 27.6114602 -51.83328389 60.19515254 -65.15307617 96.71777344 C-66.05984379 99.16126255 -67.03203972 101.58009929 -68 104 C-94.4 104 -120.8 104 -148 104 C-145.22439384 97.06098459 -140.62971469 91.77483901 -136 86 C-135.21882813 85.01 -134.43765625 84.02 -133.6328125 83 C-120.9042313 67.38410485 -106.36586259 52.78009308 -90 41 C-88.85335128 40.14823199 -87.70753275 39.29534537 -86.5625 38.44140625 C-62.66331369 20.79858643 -35.54551458 8.0870997 -7 0 C-6.32187256 -0.20890869 -5.64374512 -0.41781738 -4.94506836 -0.63305664 C-3 -1 -3 -1 0 0 Z " fill="#0065FF" transform="translate(198,6)"/>
<path d="M0 0 C26.4 0 52.8 0 80 0 C77.22439384 6.93901541 72.62971469 12.22516099 68 18 C67.21882812 18.99 66.43765625 19.98 65.6328125 21 C52.9042313 36.61589515 38.36586259 51.21990692 22 63 C20.85335128 63.85176801 19.70753275 64.70465463 18.5625 65.55859375 C-5.60485442 83.40421474 -35.23031293 99.55203589 -65 105 C-65.99 104.67 -66.98 104.34 -68 104 C-67.07058594 103.21496094 -66.14117187 102.42992187 -65.18359375 101.62109375 C-35.42366767 76.3885398 -16.16671611 43.80484746 -2.84692383 7.28222656 C-1.94015621 4.83873745 -0.96796028 2.41990071 0 0 Z " fill="#0065FF" transform="translate(382,402)"/>
</svg>
