<?xml version="1.0" encoding="UTF-8"?>
<svg version="1.1" xmlns="http://www.w3.org/2000/svg" width="512" height="512">
<path d="M0 0 C10.3689863 8.70982934 19.72882167 18.64234038 29.25 28.25 C32.23137851 31.25820325 35.21622562 34.26290455 38.203125 37.265625 C38.86789856 37.9386969 39.53267212 38.6117688 40.21759033 39.30523682 C43.31197717 42.41556058 46.43887211 45.41896343 49.77246094 48.27246094 C54.70754662 52.53328184 59.27244259 57.1600056 63.8611145 61.78594971 C65.47453514 63.41233269 67.09123271 65.03539696 68.70874023 66.65771484 C72.72241101 70.68463423 76.73056835 74.71702663 80.7388916 78.74926758 C84.13805724 82.1682862 87.53934867 85.58516399 90.94338989 88.99932861 C92.52287066 90.58521006 94.09926797 92.17411096 95.67553711 93.76318359 C99.68459457 97.79245039 103.68011186 101.80101658 108 105.5 C112.87089379 109.67079211 117.34829031 114.2364694 121.8611145 118.78594971 C123.47453514 120.41233269 125.09123271 122.03539696 126.70874023 123.65771484 C130.72241101 127.68463423 134.73056835 131.71702663 138.7388916 135.74926758 C142.13805724 139.1682862 145.53934867 142.58516399 148.94338989 145.99932861 C150.52287066 147.58521006 152.09926797 149.17411096 153.67553711 150.76318359 C158.28456511 155.39547219 162.94370935 159.88421726 167.90762329 164.13470459 C172.64834361 168.36092437 177.06484919 172.94445592 181.54296875 177.4453125 C182.6403483 178.54456246 183.73795279 179.6435879 184.83576965 180.74240112 C187.70473377 183.61515335 190.57068382 186.49089368 193.43597412 189.36730957 C196.3480739 192.28965858 199.26301841 195.209167 202.17773438 198.12890625 C207.30553681 203.26623496 212.43086555 208.40602 217.55436707 213.54763794 C219.2546011 215.25255015 220.96725322 216.94513163 222.68940735 218.62789917 C226.38089489 222.41765443 227.30950999 224.60604402 227.375 229.8125 C227.2805798 235.02449476 226.70220247 238.09767848 223 242 C219.19511214 244.98220941 215.81336567 245.83955448 211 246 C203.17536835 244.6296798 198.71191991 240.47249137 193.4375 234.8125 C192.3537207 233.68811523 192.3537207 233.68811523 191.24804688 232.54101562 C189.48412915 230.70700846 187.73586267 228.86051494 186 227 C185.99780016 228.34757558 185.99780016 228.34757558 185.99555588 229.72237492 C185.95842136 251.63388289 185.89931879 273.54523701 185.81609726 295.45662022 C185.77637472 306.05303242 185.74394785 316.64937109 185.72900391 327.24584961 C185.71595213 336.48726414 185.6888979 345.7285164 185.64538693 354.96983951 C185.62285118 359.85806428 185.60708456 364.74608949 185.60811615 369.6343708 C185.60886745 374.24654154 185.59072996 378.85827248 185.55883217 383.47032928 C185.55039594 385.15235573 185.54853993 386.83443187 185.55419731 388.51646996 C185.61568465 409.62929149 180.0285209 427.80656111 164.83984375 443.1875 C149.69845328 457.28741917 132.18704432 461.32696755 111.9650116 461.26069641 C110.70760786 461.26452196 109.45020412 461.26834751 108.15469724 461.27228898 C104.69905183 461.28248925 101.24351109 461.28040774 97.78785741 461.27610838 C94.04744905 461.27362652 90.30706494 461.28267335 86.56666565 461.29014587 C79.25198405 461.30285468 71.93733922 461.30469134 64.62264844 461.30234561 C58.67292575 461.30055796 52.72321417 461.30232165 46.77349281 461.30657005 C45.92463827 461.30716524 45.07578373 461.30776043 44.20120633 461.30837366 C42.47639471 461.30958549 40.75158308 461.31079962 39.02677146 461.31201603 C22.87389131 461.32287692 6.72103206 461.320736 -9.43184926 461.31463119 C-24.18405916 461.30946368 -38.936203 461.32071569 -53.68839983 461.33972941 C-68.86379493 461.35913748 -84.03915882 461.36735858 -99.21456641 461.36360615 C-107.72322908 461.36169857 -116.23183555 461.36413837 -124.74048805 461.37832069 C-131.98433299 461.3902734 -139.22808712 461.39159601 -146.4719334 461.37953053 C-150.16194465 461.37366893 -153.85179011 461.37246628 -157.54179001 461.38453293 C-182.41844058 461.46021781 -204.82409844 460.3242761 -224.125 442.4375 C-231.91410094 434.16759036 -238.03593992 423.98084435 -241 413 C-241.33897308 411.81358414 -241.67794617 410.62716827 -242.02719116 409.40480042 C-243.65278438 401.96742214 -243.30957819 394.30458982 -243.31884766 386.73022461 C-243.32815682 384.98507223 -243.33832695 383.23992427 -243.34928894 381.49478149 C-243.37649164 376.77853204 -243.3917094 372.0623123 -243.40471697 367.3460052 C-243.42039024 362.4092296 -243.44716702 357.47251428 -243.4727478 352.53578186 C-243.51946145 343.19691376 -243.55624139 333.85803423 -243.58942068 324.51910931 C-243.62769453 313.88303175 -243.67709087 303.24701485 -243.72740483 292.6109885 C-243.83061439 270.74070384 -243.91991039 248.87038075 -244 227 C-244.43755615 227.46897705 -244.8751123 227.9379541 -245.32592773 228.42114258 C-247.34667787 230.56777464 -249.39154403 232.68988912 -251.4375 234.8125 C-252.12521484 235.55048828 -252.81292969 236.28847656 -253.52148438 237.04882812 C-258.21507031 241.87339785 -262.31875236 244.72507823 -269 246 C-273.54989434 245.99334811 -277.13064765 244.55490575 -280.9375 242.125 C-284.59447843 238.35720404 -285.30862497 235.34207722 -285.375 230.125 C-285.25988889 224.849074 -284.69532306 221.97247229 -281 218 C-279.86653797 217.00836264 -278.72271659 216.02851685 -277.57226562 215.05664062 C-272.4656108 210.61697509 -267.71666302 205.82970894 -262.95368958 201.02885437 C-261.30666117 199.36886941 -259.65636048 197.71219765 -258.00524902 196.05627441 C-254.50065361 192.54034349 -251.00002445 189.02048047 -247.5 185.5 C-243.43880992 181.41507415 -239.37593706 177.33185107 -235.30879211 173.25285339 C-233.69607417 171.63373229 -232.08643782 170.01159216 -230.47692871 168.38928223 C-225.81396541 163.70329322 -221.10320346 159.15380559 -216.07800293 154.85314941 C-211.92822445 151.15240412 -208.05337979 147.16034067 -204.1388855 143.21405029 C-202.52546486 141.58766731 -200.90876729 139.96460304 -199.29125977 138.34228516 C-195.85799254 134.89768516 -192.42869316 131.44915219 -189 128 C-185.02141817 123.99767795 -181.0411508 119.99706185 -177.05661011 116.00067139 C-175.47712934 114.41478994 -173.90073203 112.82588904 -172.32446289 111.23681641 C-167.71343545 106.60254515 -163.05174695 102.11311427 -158.08569336 97.86083984 C-153.93399159 94.15672292 -150.05597389 90.16295584 -146.1388855 86.21405029 C-144.52546486 84.58766731 -142.90876729 82.96460304 -141.29125977 81.34228516 C-137.85799254 77.89768516 -134.42869316 74.44915219 -131 71 C-127.02141817 66.99767795 -123.0411508 62.99706185 -119.05661011 59.00067139 C-117.47712934 57.41478994 -115.90073203 55.82588904 -114.32446289 54.23681641 C-109.65195333 49.54081862 -104.92895535 44.98364395 -99.89547729 40.67507935 C-96.31280792 37.50898736 -93.00528528 34.06537155 -89.66015625 30.65234375 C-88.08688187 29.0615588 -86.51330494 27.47107304 -84.93945312 25.88085938 C-82.49637541 23.40684731 -80.05571779 20.93058896 -77.62036133 18.44897461 C-75.24468135 16.03068797 -72.85941886 13.62218636 -70.47265625 11.21484375 C-69.7567482 10.48031479 -69.04084015 9.74578583 -68.30323792 8.98899841 C-49.56132057 -9.84617109 -22.93718296 -15.58459882 0 0 Z M-44.72558594 29.97949219 C-45.23760433 30.46279369 -45.74962273 30.9460952 -46.27715683 31.44404221 C-51.23993311 36.15582427 -56.09586727 40.97896959 -60.91364288 45.83847809 C-62.44329471 47.38124634 -63.97635821 48.92055833 -65.51019287 50.45916748 C-68.7596859 53.71990821 -72.00515115 56.98463856 -75.25 60.25 C-79.03192726 64.05572177 -82.815593 67.85968385 -86.603508 71.65944672 C-88.09880325 73.16112473 -89.59100821 74.66582448 -91.08306885 76.17071533 C-94.94625767 80.0477498 -98.79050404 83.89037251 -102.95019531 87.45019531 C-107.90265921 91.69675263 -112.45498805 96.34330731 -117.04631042 100.97114563 C-118.69333883 102.63113059 -120.34363952 104.28780235 -121.99475098 105.94372559 C-125.49934639 109.45965651 -128.99997555 112.97951953 -132.5 116.5 C-136.56119008 120.58492585 -140.62406294 124.66814893 -144.69120789 128.74714661 C-146.30392583 130.36626771 -147.91356218 131.98840784 -149.52307129 133.61071777 C-150.5275997 134.61888416 -151.53227185 135.62690734 -152.53710938 136.63476562 C-153.40122437 137.50411743 -154.26533936 138.37346924 -155.15563965 139.26916504 C-160.20130194 144.11344259 -165.17529133 148.56592669 -171.08126831 152.34809875 C-188.55403624 163.5870209 -208.22183396 179.0898186 -213.45149231 200.22881317 C-219.36601777 229.1123743 -216.77557976 260.19613878 -215.53939891 289.4399873 C-215.04260721 301.45373581 -214.84380625 313.46760909 -214.65579057 325.48946798 C-214.36648082 343.22232794 -213.98345801 360.9564209 -213.29392624 378.67861366 C-213.22190755 380.57501856 -213.15569312 382.47165473 -213.09590149 384.3684845 C-212.64182749 398.42698724 -211.36391771 410.47190141 -201 421 C-191.45485954 429.24599091 -180.42168788 430.45187845 -168.22366333 430.38768005 C-166.36122398 430.39575836 -166.36122398 430.39575836 -164.46115959 430.40399987 C-161.04486097 430.4157616 -157.62905507 430.41424139 -154.2127769 430.40683305 C-150.51668632 430.40207882 -146.82064669 430.41463106 -143.12457275 430.42485046 C-135.89530099 430.44199993 -128.66611628 430.44288649 -121.43682946 430.43763756 C-115.55761771 430.43358737 -109.67843158 430.43504948 -103.79922104 430.44038582 C-102.96075501 430.44113424 -102.12228898 430.44188266 -101.25841489 430.44265376 C-99.55477826 430.44418533 -97.85114164 430.44572367 -96.14750503 430.44726873 C-80.19020586 430.46097988 -64.23295579 430.45556587 -48.27565776 430.44408352 C-33.6966069 430.43415295 -19.117683 430.44709122 -4.53865172 430.47101771 C10.45364701 430.49543589 25.44588668 430.50500988 40.43820488 430.49836498 C48.84622968 430.49487876 57.2541569 430.49706532 65.6621666 430.51461601 C72.81974881 430.52937206 79.97716472 430.52992918 87.13474379 430.5125451 C90.78201482 430.50406053 94.42898917 430.50182261 98.07624435 430.51719666 C102.04087833 430.53370076 106.00505966 430.51883303 109.96969604 430.50120544 C111.10717407 430.51081045 112.2446521 430.52041546 113.41659915 430.53031152 C124.14511794 430.43264204 134.67028137 428.25093308 142.99609375 421.12109375 C150.81738036 412.84242196 154.13783118 403.97782121 154.59715271 392.69430542 C154.63625655 391.88450765 154.67536039 391.07470988 154.71564919 390.24037278 C154.84253916 387.53932822 154.95591727 384.83792274 155.06811523 382.13623047 C155.15438971 380.19165994 155.24067853 378.24709005 155.32698059 376.30252075 C156.09577391 358.40666227 156.5475012 340.50214835 156.91030788 322.5939312 C157.15949845 310.59406353 157.50721025 298.61429812 158.1081543 286.62646484 C163.19553676 225.84603006 163.19553676 225.84603006 138.7675066 172.87778664 C128.30237047 161.78704815 116.28244453 152.51620688 103.72787666 143.93548965 C97.84960184 139.76472187 92.70156583 134.83060932 87.62890625 129.7265625 C87.15290985 129.24910583 86.67691345 128.77164917 86.18649292 128.27972412 C85.16948949 127.2589617 84.15364057 126.23704787 83.1388855 125.21405029 C81.52546486 123.58766731 79.90876729 121.96460304 78.29125977 120.34228516 C74.27758899 116.31536577 70.26943165 112.28297337 66.2611084 108.25073242 C62.86194276 104.8317138 59.46065133 101.41483601 56.05661011 98.00067139 C54.47712934 96.41478994 52.90073203 94.82588904 51.32446289 93.23681641 C47.3159088 89.20810154 43.32150031 85.20041816 39 81.50439453 C34.11683336 77.32324926 29.64826467 72.72777508 25.1388855 68.15291977 C23.52623486 66.51791977 21.90937235 64.88719265 20.29125977 63.25759888 C15.6966131 58.62965836 11.10632506 53.99746116 6.52636719 49.35498047 C3.7096556 46.50042113 0.8855096 43.65339602 -1.94338989 40.8109169 C-3.01139421 39.7349184 -4.07662831 38.65616221 -5.1388855 37.57448959 C-15.66411236 26.60488355 -15.66411236 26.60488355 -29.62890625 21.75 C-35.91899232 22.41320512 -40.26738296 25.74110399 -44.72558594 29.97949219 Z " fill="#000000" transform="translate(285,30)"/>
<path d="M0 0 C0.6847641 -0.0049649 1.3695282 -0.00992981 2.07504272 -0.01504517 C4.34520466 -0.02967489 6.61529668 -0.03647066 8.88549805 -0.04199219 C10.46249901 -0.04774369 12.03949994 -0.05350142 13.61650085 -0.05926514 C16.92614061 -0.06977792 20.23575605 -0.07561853 23.54541016 -0.07910156 C27.78239203 -0.08458199 32.01905185 -0.10859896 36.25593281 -0.13707352 C39.51505972 -0.15571712 42.77410941 -0.16090644 46.03328514 -0.16243744 C47.59497015 -0.16546143 49.15665387 -0.17348147 50.71828651 -0.18662262 C52.90618838 -0.20371705 55.09330807 -0.20179487 57.28125 -0.1953125 C58.52542191 -0.19895813 59.76959381 -0.20260376 61.0514679 -0.20635986 C65.91784692 0.33833191 68.39840951 2.09478284 71.5847168 5.72363281 C74.1069654 9.2367648 74.45838395 10.97359555 74.44824219 15.25341797 C74.44816666 16.31436676 74.44809113 17.37531555 74.44801331 18.46841431 C74.44285202 19.61740204 74.43769073 20.76638977 74.43237305 21.95019531 C74.43025063 23.71053604 74.43025063 23.71053604 74.42808533 25.50643921 C74.42247369 29.26636267 74.40991918 33.02622726 74.3972168 36.78613281 C74.3922033 39.33040279 74.38764013 41.87467369 74.38354492 44.41894531 C74.37250047 50.66636134 74.35575098 56.91374287 74.3347168 63.16113281 C75.31071335 63.14780914 75.31071335 63.14780914 76.306427 63.13421631 C83.08725182 63.04562448 89.86791184 62.98534908 96.64916992 62.94140625 C99.17886027 62.92130876 101.70850426 62.89402613 104.23803711 62.859375 C107.87715097 62.81077725 111.5156498 62.78814469 115.1550293 62.77050781 C116.28337189 62.74986267 117.41171448 62.72921753 118.57424927 62.70794678 C124.83112185 62.70616451 128.59661019 62.93071516 133.3347168 67.16113281 C138.14646533 72.23297587 138.45305488 76.59128329 138.49584961 83.38500977 C138.50545715 84.62011795 138.5150647 85.85522614 138.52496338 87.12776184 C138.5298122 88.46831069 138.53409082 89.8088617 138.5378418 91.14941406 C138.54208286 92.17013535 138.54208286 92.17013535 138.54640961 93.21147728 C138.56136354 96.81278238 138.57061687 100.41404781 138.57495117 104.01538086 C138.58042946 107.71728293 138.60445441 111.41881603 138.63292313 115.12060261 C138.65163433 117.9835259 138.65675959 120.8463618 138.65828705 123.70934105 C138.66129513 125.07317305 138.66926066 126.4370042 138.68247223 127.80077553 C138.83331027 144.56798276 138.83331027 144.56798276 133.0222168 150.53613281 C126.41996043 154.5281948 120.31054072 154.42928817 112.8112793 154.35644531 C111.70996674 154.35361542 110.60865417 154.35078552 109.47396851 154.34786987 C105.96910572 154.33670759 102.46450188 154.31160992 98.9597168 154.28613281 C96.57821008 154.27609792 94.19669934 154.26697296 91.81518555 154.25878906 C85.98827482 154.23678118 80.16151432 154.2033428 74.3347168 154.16113281 C74.34359924 154.79704849 74.35248169 155.43296417 74.3616333 156.08815002 C74.45031555 162.7231444 74.51053786 169.35796964 74.55444336 175.9934082 C74.57452451 178.46776166 74.60179503 180.94206786 74.63647461 183.41625977 C74.68514457 186.97847169 74.70772133 190.54005462 74.7253418 194.10253906 C74.74598694 195.20384659 74.76663208 196.30515411 74.78790283 197.43983459 C74.78977421 203.88507132 74.51016949 208.10735264 70.3347168 213.16113281 C63.84810014 218.70650116 55.13090239 217.72615066 47.1081543 217.65722656 C45.6318047 217.65738179 44.15545469 217.65887468 42.67910767 217.66163635 C39.59765422 217.66301494 36.51666931 217.65055104 33.43530273 217.62768555 C29.49668073 217.59925189 25.55883321 217.60205879 21.62015343 217.61477566 C18.57625778 217.62174688 15.53253952 217.61392804 12.48866653 217.60151863 C11.03668524 217.59702164 9.5846848 217.59665193 8.13270187 217.60058403 C6.10153797 217.60351141 4.07037819 217.58477505 2.03930664 217.56518555 C0.88651215 217.55978256 -0.26628235 217.55437958 -1.45401001 217.54881287 C-6.2630172 216.96824682 -9.54966398 215.30774146 -12.9152832 211.84863281 C-17.1022873 205.41859081 -16.93420466 199.27859798 -16.8605957 191.85644531 C-16.85776581 190.7773288 -16.85493591 189.69821228 -16.85202026 188.58639526 C-16.8408598 185.15285982 -16.8157625 181.71958891 -16.7902832 178.28613281 C-16.78024807 175.95280326 -16.77112315 173.6194696 -16.76293945 171.28613281 C-16.74093399 165.57770981 -16.70749747 159.86944022 -16.6652832 154.16113281 C-17.26139404 154.16779465 -17.85750488 154.17445648 -18.47167969 154.18132019 C-24.7013609 154.24792381 -30.9309402 154.29303697 -37.16088867 154.32592773 C-39.4828706 154.34097193 -41.80482432 154.36141226 -44.12670898 154.38745117 C-47.47297143 154.42402627 -50.81885665 154.44090336 -54.1652832 154.45410156 C-55.19580811 154.46958542 -56.22633301 154.48506927 -57.28808594 154.50102234 C-63.69667404 154.50250349 -70.21020129 154.30637517 -75.22167969 149.74430847 C-79.21150951 145.1707183 -79.79225067 141.69020932 -79.84228516 135.79711914 C-79.85512039 134.48177689 -79.86795563 133.16643463 -79.88117981 131.81123352 C-79.88934926 130.37188088 -79.8967926 128.93252396 -79.90356445 127.49316406 C-79.90763998 126.76671881 -79.91171551 126.04027355 -79.91591454 125.2918148 C-79.93676437 121.44413921 -79.95106879 117.59649913 -79.96044922 113.7487793 C-79.97149054 109.78889562 -80.00586643 105.82957745 -80.04562092 101.86989307 C-80.07186459 98.8130952 -80.08014803 95.75643025 -80.0837307 92.69952965 C-80.08857944 91.24078251 -80.10014432 89.78204062 -80.11876869 88.32340431 C-80.30738514 72.56748057 -80.30738514 72.56748057 -75.6652832 67.16113281 C-69.76231045 62.28407393 -64.02726803 62.63140144 -56.60668945 62.77050781 C-55.46239975 62.7761676 -54.31811005 62.78182739 -53.1391449 62.78765869 C-49.50159019 62.80996326 -45.8650378 62.86015113 -42.2277832 62.91113281 C-39.75449018 62.93120535 -37.28118165 62.9494548 -34.80786133 62.96582031 C-28.75999607 63.00980874 -22.71271127 63.07666256 -16.6652832 63.16113281 C-16.67194504 62.55027328 -16.67860687 61.93941376 -16.68547058 61.31004333 C-16.75199978 54.93453246 -16.79715676 48.55912073 -16.83007812 42.18334961 C-16.84513572 39.80603019 -16.86558609 37.42873842 -16.89160156 35.05151367 C-16.92811723 31.62834843 -16.94504029 28.2055515 -16.95825195 24.78222656 C-16.97373581 23.7246666 -16.98921967 22.66710663 -17.00517273 21.57749939 C-17.00687634 14.05532206 -16.25806774 9.07011059 -11.1027832 3.28613281 C-7.23648693 -0.08448445 -5.0846789 0.0279583 0 0 Z M14.3347168 30.16113281 C14.29604492 35.90390625 14.29604492 35.90390625 14.2565918 41.76269531 C14.21816472 45.4761486 14.17300634 49.18946335 14.12719727 52.90283203 C14.0989952 55.48088961 14.07777693 58.05903352 14.0637207 60.63720703 C14.04228171 64.34615256 13.99562284 68.05406074 13.9440918 71.76269531 C13.94224884 73.48801987 13.94224884 73.48801987 13.94036865 75.24819946 C13.74924995 85.72234399 13.74924995 85.72234399 9.3347168 90.16113281 C3.34398679 93.8292341 -2.62120375 93.63210081 -9.50512695 93.67285156 C-11.18826744 93.69977837 -11.18826744 93.69977837 -12.90541077 93.72724915 C-16.47116395 93.78120772 -20.03678435 93.81520232 -23.6027832 93.84863281 C-26.02793183 93.88181855 -28.45306297 93.91630936 -30.87817383 93.95214844 C-36.8072279 94.03937024 -42.73568575 94.09956521 -48.6652832 94.16113281 C-48.6652832 103.73113281 -48.6652832 113.30113281 -48.6652832 123.16113281 C-44.90895508 123.18691406 -41.15262695 123.21269531 -37.2824707 123.23925781 C-33.63851473 123.27768634 -29.99469987 123.32284423 -26.35083008 123.36865234 C-23.82127638 123.39685214 -21.29163472 123.41807154 -18.76196289 123.43212891 C-15.12250775 123.4535711 -11.48410905 123.50023141 -7.8449707 123.55175781 C-6.71662811 123.55298645 -5.58828552 123.55421509 -4.42575073 123.55548096 C1.59785765 123.66746669 5.73100744 123.84556063 10.3347168 128.16113281 C12.86763405 131.75107573 13.7148528 134.21652996 13.76708984 138.59399414 C13.79678108 140.18507744 13.79678108 140.18507744 13.82707214 141.80830383 C13.83346207 142.94180771 13.83985199 144.07531158 13.84643555 145.24316406 C13.86438675 146.41247971 13.88233795 147.58179535 13.90083313 148.7865448 C13.95494737 152.51553763 13.98883647 156.24440236 14.0222168 159.97363281 C14.05538877 162.5042496 14.08987831 165.03484948 14.12573242 167.56542969 C14.21315099 173.76401598 14.27321344 179.96201847 14.3347168 186.16113281 C23.9047168 186.16113281 33.4747168 186.16113281 43.3347168 186.16113281 C43.36049805 182.57238281 43.3862793 178.98363281 43.4128418 175.28613281 C43.45130006 171.79435523 43.49644834 168.30272342 43.54223633 164.81103516 C43.57038911 162.39216113 43.59163182 159.97319609 43.60571289 157.55419922 C43.62722047 154.06853832 43.67391372 150.5839653 43.7253418 147.09863281 C43.72657043 146.02436035 43.72779907 144.95008789 43.72906494 143.84326172 C43.85061026 137.55319855 44.35439208 132.24652805 48.3347168 127.16113281 C53.58796592 123.00707737 60.10982909 123.68568385 66.5144043 123.64941406 C67.68230499 123.63146286 68.85020569 123.61351166 70.05349731 123.59501648 C73.77220077 123.54097053 77.49077625 123.50703503 81.2097168 123.47363281 C83.73577624 123.44045481 86.26181882 123.40596471 88.7878418 123.37011719 C94.97015133 123.28278496 101.15188147 123.22266412 107.3347168 123.16113281 C107.3347168 113.59113281 107.3347168 104.02113281 107.3347168 94.16113281 C103.73436523 94.12375 100.13401367 94.08636719 96.42456055 94.04785156 C92.92620877 94.00160142 89.4279625 93.95038029 85.9296875 93.89868164 C83.50397182 93.86548815 81.07817993 93.83743897 78.65234375 93.81469727 C75.15941996 93.78104951 71.66719095 93.7287265 68.17456055 93.67285156 C66.55540993 93.66326668 66.55540993 93.66326668 64.90354919 93.65348816 C57.75230138 93.51478279 52.17819417 93.07943853 46.9597168 87.72363281 C44.49932937 83.8437911 44.20809365 80.56745418 44.12939453 76.02539062 C44.0994767 74.49425629 44.0994767 74.49425629 44.06895447 72.93218994 C44.05224197 71.83727234 44.03552948 70.74235474 44.01831055 69.61425781 C43.99752945 68.48791931 43.97674835 67.36158081 43.95533752 66.20111084 C43.88997347 62.60451332 43.83101794 59.00784304 43.7722168 55.41113281 C43.72901909 52.97232322 43.6854044 50.53352097 43.64135742 48.09472656 C43.53352116 42.11693546 43.4343494 36.13908882 43.3347168 30.16113281 C33.7647168 30.16113281 24.1947168 30.16113281 14.3347168 30.16113281 Z " fill="#000000" transform="translate(226.665283203125,181.8388671875)"/>
</svg>
