<?xml version="1.0" encoding="UTF-8"?>
<svg version="1.1" xmlns="http://www.w3.org/2000/svg" width="512" height="512">
<path d="M0 0 C32.21189328 29.21907574 53.82218746 71.09590254 56.28955078 114.89160156 C56.33595703 116.426875 56.33595703 116.426875 56.38330078 117.99316406 C56.40908203 118.63801758 56.43486328 119.28287109 56.46142578 119.94726562 C58.00648422 162.41705952 44.06759866 200.92620234 19.38330078 234.99316406 C20.09135345 235.59573957 20.09135345 235.59573957 20.81371021 236.21048832 C26.25808458 240.90177972 31.38989339 245.84568415 36.47387695 250.92260742 C37.7803141 252.22159721 37.7803141 252.22159721 39.11314392 253.54682922 C41.4785772 255.90024954 43.84174565 258.25589097 46.20341277 260.61308742 C47.68316939 262.08989391 49.16350309 263.56611962 50.64400673 265.0421772 C55.28884467 269.67338425 59.93170843 274.30655681 64.57167548 278.94264406 C69.90539414 284.27187615 75.24560273 289.59449051 80.59151858 294.91148657 C84.74142428 299.03972761 88.8855004 303.17376235 93.02525502 307.31218249 C95.49042685 309.77631081 97.95792241 312.23799451 100.43153954 314.69364738 C103.18972606 317.43218485 105.93577047 320.18270574 108.6809082 322.93432617 C109.49192993 323.73613312 110.30295166 324.53794006 111.1385498 325.36404419 C121.62860886 335.93172992 121.62860886 335.93172992 122.97705078 343.18847656 C122.60644128 354.77002357 122.60644128 354.77002357 117.73095703 359.64550781 C113.35689874 363.57568704 110.16678641 365.14919985 104.19580078 365.36816406 C103.29474609 365.41714844 102.39369141 365.46613281 101.46533203 365.51660156 C92.70763928 364.02923676 86.44029465 356.46317295 80.47900391 350.42944336 C79.51296415 349.4625558 78.54626019 348.49633148 77.57894897 347.53071594 C74.97357425 344.92619664 72.37750831 342.31257871 69.78309822 339.69714332 C67.06324627 336.95844862 64.33481037 334.22833226 61.6072998 331.49726868 C56.4520359 326.33270654 51.30446272 321.16054981 46.15965414 315.98557454 C40.29855688 310.09086391 34.42886758 304.20474056 28.558465 298.3192991 C16.49053673 286.22007216 4.43336432 274.11018273 -7.61669922 261.99316406 C-9.05016463 262.94696935 -10.48338546 263.90114223 -11.91650391 264.85546875 C-12.71465515 265.38678406 -13.5128064 265.91809937 -14.33514404 266.46551514 C-16.17242344 267.69569266 -17.99805021 268.94326401 -19.81982422 270.19628906 C-57.42075977 295.45640474 -103.63120243 304.02797654 -148.03857422 295.92675781 C-184.56309207 288.71960465 -220.9214445 269.10029794 -244.61669922 239.99316406 C-245.44943359 238.98640625 -246.28216797 237.97964844 -247.14013672 236.94238281 C-276.26882904 201.20318043 -289.80144943 156.82115341 -285.91455078 110.84716797 C-283.70585569 89.68352405 -277.88177246 70.08034642 -268.61669922 50.99316406 C-268.13112549 49.9910791 -268.13112549 49.9910791 -267.63574219 48.96875 C-248.01285719 9.08451298 -212.0440088 -20.87152115 -170.23046875 -35.15478516 C-158.92417826 -38.84047111 -147.44562274 -41.66299522 -135.61669922 -43.00683594 C-134.67181641 -43.11769531 -133.72693359 -43.22855469 -132.75341797 -43.34277344 C-84.07767241 -48.2169347 -36.450381 -32.32502528 0 0 Z M-145.61669922 -3.00683594 C-146.2928125 -2.84586426 -146.96892578 -2.68489258 -147.66552734 -2.51904297 C-181.16148436 5.62038076 -211.19541165 27.77026266 -229.21435547 57.14941406 C-247.92745846 88.84095946 -253.60733092 125.733026 -244.51513672 161.46582031 C-239.33674334 180.59491224 -230.63627731 198.01310896 -217.61669922 212.99316406 C-216.90771484 213.82332031 -216.19873047 214.65347656 -215.46826172 215.50878906 C-192.61908299 241.64504263 -160.35876714 258.27842481 -125.61669922 260.99316406 C-87.87362652 262.97064466 -52.87829626 251.21315425 -24.61669922 225.99316406 C-5.86700719 208.72440681 7.1492668 187.47855765 14.13330078 162.93066406 C14.33213867 162.23537598 14.53097656 161.54008789 14.73583984 160.82373047 C23.93628798 126.63372895 18.0054443 90.73356034 0.85986328 60.17675781 C-4.57028028 50.84435173 -11.20687098 42.81330852 -18.61669922 34.99316406 C-19.44943359 34.09597656 -20.28216797 33.19878906 -21.14013672 32.27441406 C-43.55206913 8.87661952 -75.83678138 -5.16307817 -108.14404297 -6.28417969 C-120.92331806 -6.5471351 -133.19989049 -6.12964473 -145.61669922 -3.00683594 Z " fill="#000000" transform="translate(346.61669921875,114.0068359375)"/>
</svg>
