<?xml version="1.0" encoding="UTF-8"?>
<svg version="1.1" xmlns="http://www.w3.org/2000/svg" width="512" height="512">
<path d="M0 0 C0.86757935 0.00304138 1.73515869 0.00608276 2.62902832 0.00921631 C56.4753241 0.28710558 104.25673173 22.88159102 141.90673828 60.72924805 C176.2833799 96.07253601 194.8050367 144.24745736 194.6875 193.3125 C194.68668427 194.59758453 194.68668427 194.59758453 194.68585205 195.90863037 C194.6446389 210.07309595 193.67106138 223.62752501 190.3125 237.4375 C189.99104004 238.78400635 189.99104004 238.78400635 189.66308594 240.15771484 C183.06040544 267.01534314 170.78671744 291.33034567 154.3125 313.4375 C158.3030317 318.22346001 162.47181473 322.73294234 166.89823914 327.11657715 C167.5341996 327.75056978 168.17016007 328.38456241 168.82539207 329.03776693 C170.93940742 331.14411392 173.05699423 333.24683277 175.17456055 335.34960938 C176.69789841 336.86611114 178.22098347 338.38286688 179.74383545 339.89985657 C183.01480126 343.15752714 186.28717706 346.41377243 189.5605526 349.66902161 C194.73685102 354.81741958 199.90767992 359.97128693 205.0773468 365.12634277 C206.84931952 366.89317222 208.62129891 368.65999498 210.3932848 370.42681122 C211.28037589 371.31131675 212.16746698 372.19582228 213.08143961 373.107131 C225.11194547 385.101614 237.14716832 397.09133357 249.19262695 409.07080078 C257.32722764 417.1609235 265.45470281 425.25813143 273.57414848 433.36346483 C277.86850382 437.64974609 282.16650486 441.93222727 286.47333336 446.20597839 C290.52103574 450.22264471 294.55937257 454.24849089 298.5907135 458.28157616 C300.07110854 459.75927432 301.55493997 461.23353905 303.04244423 462.70408058 C305.07357735 464.71305055 307.09197297 466.73402392 309.10771179 468.75842285 C309.69797754 469.33635511 310.28824328 469.91428737 310.89639586 470.50973272 C316.21680524 475.90224047 318.74050606 481.11845319 318.75 488.875 C318.54986863 495.86358731 317.27099312 500.32459701 312.44140625 505.40625 C306.95724302 510.46536467 302.58114965 512.72170779 295 512.8125 C293.93136719 512.84085938 292.86273438 512.86921875 291.76171875 512.8984375 C283.93568056 511.85260227 278.64958735 507.36008081 273.27624512 501.88226318 C272.61604134 501.22547711 271.95583756 500.56869103 271.27562761 499.89200234 C269.07974784 497.70267802 266.89841393 495.4994285 264.71679688 493.29589844 C263.14014179 491.71811438 261.56260403 490.14121195 259.98425293 488.56512451 C255.7113979 484.29341559 251.45097521 480.00949963 247.19269371 475.72326946 C242.73691096 471.2424562 238.26977351 466.77299229 233.80383301 462.30230713 C226.31262657 454.80008688 218.82843656 447.29092389 211.34960938 439.77636719 C203.64858669 432.03859196 195.94334688 424.30505629 188.23242188 416.57714844 C187.75660437 416.10028004 187.28078687 415.62341164 186.79055065 415.13209268 C184.40333332 412.73965496 182.01603311 410.34729997 179.62869167 407.9549861 C159.84376157 388.12863294 140.07352199 368.2876804 120.3125 348.4375 C118.57276375 349.53931839 116.8337235 350.64223577 115.0949707 351.74560547 C114.12646683 352.35967255 113.15796295 352.97373962 112.16011047 353.60641479 C109.67648549 355.20344817 107.227766 356.83772943 104.79296875 358.5078125 C83.24179256 372.93261839 58.72110411 381.84788873 33.3125 386.4375 C32.29115967 386.62368896 31.26981934 386.80987793 30.2175293 387.00170898 C21.00268455 388.50662408 11.94895105 388.77763724 2.63745117 388.75317383 C0.14521977 388.75002554 -2.3458057 388.77353151 -4.83789062 388.79882812 C-16.37385518 388.84419444 -27.36473196 387.60374993 -38.6875 385.4375 C-40.15401001 385.16329224 -40.15401001 385.16329224 -41.65014648 384.88354492 C-77.55495978 377.65121104 -109.49778966 358.56868382 -135.6875 333.4375 C-136.63753906 332.52871094 -137.58757812 331.61992187 -138.56640625 330.68359375 C-160.22332433 309.50860987 -174.8564161 283.88619902 -184.6875 255.4375 C-184.94015625 254.71095215 -185.1928125 253.9844043 -185.453125 253.23583984 C-187.11157807 248.35837543 -188.48246185 243.44550621 -189.6875 238.4375 C-189.98164795 237.23770508 -189.98164795 237.23770508 -190.28173828 236.01367188 C-196.59784302 208.93137157 -196.33546072 177.41361807 -189.6875 150.4375 C-189.45675781 149.47070312 -189.22601563 148.50390625 -188.98828125 147.5078125 C-177.08006472 98.99285628 -145.36429375 55.15705462 -102.7097168 28.9987793 C-100.71004882 27.79792239 -98.70212529 26.61307311 -96.6875 25.4375 C-96.07825684 25.08059082 -95.46901367 24.72368164 -94.84130859 24.35595703 C-80.77889713 16.22702029 -65.81175306 10.29311867 -50.125 6.125 C-48.83529297 5.77961182 -48.83529297 5.77961182 -47.51953125 5.42724609 C-31.77522554 1.47085069 -16.20015934 -0.12155005 0 0 Z M-47.6875 55.4375 C-48.31172852 55.66308594 -48.93595703 55.88867188 -49.57910156 56.12109375 C-87.1947064 69.82765485 -116.04502843 97.09324728 -133.41796875 133.015625 C-149.04827877 168.21395811 -151.86474163 208.72302063 -137.96875 245.01953125 C-127.69658761 270.8266734 -111.74978039 294.55758453 -89.25 311.3125 C-88.56115723 311.82570801 -87.87231445 312.33891602 -87.16259766 312.86767578 C-54.34768101 336.81772278 -14.60062039 345.29228638 25.3125 339.4375 C63.51377564 332.87648003 97.49650525 311.16780436 120.25390625 279.87109375 C143.57674501 246.70652962 151.68956574 206.5677095 144.85595703 166.77929688 C140.22436884 142.73597067 129.85335332 118.69348574 113.3125 100.4375 C112.54808594 99.56609375 111.78367187 98.6946875 110.99609375 97.796875 C104.44973221 90.39760341 97.8119462 83.47290714 89.875 77.5625 C89.18615723 77.04929199 88.49731445 76.53608398 87.78759766 76.00732422 C49.25512729 47.88430668 -2.59791933 38.80067359 -47.6875 55.4375 Z " fill="#150197" transform="translate(193.6875,-0.4375)"/>
<path d="M0 0 C7.35895083 7.17873163 9.16295811 13.1344373 10.375 23.125 C12.6687121 40.22424433 18.90889913 56.16695714 33 67 C43.25108573 74.22141262 54.15871791 78.66169101 66.64746094 79.63134766 C75.40893867 80.32441978 82.39381384 81.31353173 88.79296875 87.82421875 C93.69341891 93.74899104 95.31014357 99.38409702 94.9375 107 C93.90312306 114.75188238 89.72081527 119.78782682 83.94140625 124.7734375 C73.58597619 131.31590237 58.73670713 128.21194014 47.43847656 125.83642578 C19.18221118 119.39973326 -5.89668956 102.17953281 -21.70166016 77.70141602 C-33.21804601 58.90109949 -42.13928498 33.44630527 -37.41796875 11.265625 C-34.88556924 4.55881352 -29.4091911 -0.85961597 -22.98828125 -3.9765625 C-15.22046398 -6.33999575 -6.31456453 -5.1880225 0 0 Z " fill="#150197" transform="translate(123,175)"/>
</svg>
