<?xml version="1.0" encoding="UTF-8"?>
<svg version="1.1" xmlns="http://www.w3.org/2000/svg" width="512" height="512">
<path d="M0 0 C168.96 0 337.92 0 512 0 C512 168.96 512 337.92 512 512 C343.04 512 174.08 512 0 512 C0 343.04 0 174.08 0 0 Z " fill="#FEFEFE" transform="translate(0,0)"/>
<path d="M0 0 C0.8780127 0.18224121 1.75602539 0.36448242 2.66064453 0.55224609 C14.32286698 3.03132268 25.68279759 6.27314959 37 10 C38.52947266 10.45632813 38.52947266 10.45632813 40.08984375 10.921875 C66.7901637 19.09324809 92.25504273 36.65825349 113 55 C113.81339844 55.6909375 114.62679688 56.381875 115.46484375 57.09375 C127.97480427 67.91767591 139.50670454 80.45158246 149 94 C149.62237549 94.87833496 149.62237549 94.87833496 150.25732422 95.77441406 C162.66179359 113.48976507 173.33075383 133.40228971 180 154 C180.54527344 155.58748047 180.54527344 155.58748047 181.1015625 157.20703125 C182.26077717 160.81067685 182.74317741 164.24468302 183 168 C183.08894531 169.15757812 183.17789062 170.31515625 183.26953125 171.5078125 C183.89690898 186.41897625 178.9639559 200.67413552 168.9375 211.9375 C158.95549665 222.63482606 146.10800194 230.4562951 131.13167053 231.12880117 C129.53740664 231.13148402 129.53740664 231.13148402 127.9109354 231.13422108 C126.67997531 231.13867892 125.44901521 231.14313676 124.18075329 231.14772969 C122.81773221 231.14764041 121.45471112 231.14745057 120.09169006 231.14717102 C118.64129696 231.15047165 117.19090477 231.15419763 115.74051374 231.1583125 C111.75408213 231.16831825 107.76766557 231.17204701 103.78122318 231.17470181 C99.48174646 231.17860916 95.18228162 231.18818727 90.8828125 231.19691467 C80.49838517 231.21666809 70.11395688 231.22674439 59.72951546 231.23564246 C54.83651123 231.24002766 49.94350807 231.24539391 45.05050468 231.25063133 C28.77975851 231.26764335 12.50901301 231.28213645 -3.76174068 231.28938007 C-7.98316893 231.2912899 -12.20459717 231.29321024 -16.42602539 231.29516602 C-17.47521255 231.29564976 -18.52439971 231.2961335 -19.60538042 231.2966319 C-36.59290318 231.30492817 -53.58035544 231.33025841 -70.56784742 231.36274669 C-88.01772622 231.39584652 -105.46756923 231.41383152 -122.91747957 231.41702431 C-132.71117911 231.41918682 -142.50477586 231.4278974 -152.29844475 231.45348549 C-160.64115838 231.47523253 -168.98374425 231.48322328 -177.326483 231.47351871 C-181.57938666 231.46898544 -185.83202694 231.47080316 -190.08489418 231.49028015 C-193.9868851 231.507995 -197.88842215 231.50684747 -201.79041845 231.49138286 C-203.19360993 231.48901931 -204.59683354 231.49326452 -205.99997615 231.50521151 C-223.86912606 231.64779532 -237.70227276 226.5646498 -250.6796875 214.33984375 C-257.9681915 206.98998871 -261.71296518 199.81186051 -265 190 C-265.36996094 189.03964844 -265.73992187 188.07929688 -266.12109375 187.08984375 C-267.16091405 183.4342977 -267.30267372 180.01684601 -267.25 176.25 C-267.24250732 175.54045166 -267.23501465 174.83090332 -267.22729492 174.09985352 C-267.11271505 168.48159888 -266.53746027 163.39344351 -265 158 C-264.72800781 156.989375 -264.45601563 155.97875 -264.17578125 154.9375 C-256.69032769 130.00453944 -242.96546693 107.33676646 -227 87 C-226.21496094 85.9996875 -225.42992187 84.999375 -224.62109375 83.96875 C-202.84787991 56.859346 -176.6466969 36.45158125 -145.875 20.375 C-144.7494873 19.78299805 -143.62397461 19.19099609 -142.46435547 18.58105469 C-136.85916933 15.70971956 -131.47770064 13.338313 -125.39697266 11.69775391 C-122.85457374 10.95766671 -120.47485688 10.0180501 -118.03125 9 C-82.68739475 -5.47886905 -37.24289235 -7.88077434 0 0 Z " fill="#160297" transform="translate(298,281)"/>
<path d="M0 0 C0.69754395 0.0304541 1.39508789 0.0609082 2.11376953 0.09228516 C28.99721531 1.51293048 52.87136369 14.92737897 71.37109375 34.01953125 C76.07285996 39.35006263 80.101079 45.06633499 84 51 C84.63808594 51.95390625 85.27617187 52.9078125 85.93359375 53.890625 C91.43499484 62.66346059 94.72370726 72.23443179 98 82 C98.34160156 82.98871094 98.68320312 83.97742188 99.03515625 84.99609375 C108.51862567 115.54334951 102.34467136 151.06554379 88.125 179.1015625 C75.9195663 202.037419 56.05293571 220.24702881 32 230 C30.95585937 230.4434375 29.91171875 230.886875 28.8359375 231.34375 C4.96428311 240.78265702 -22.47915715 238.57977958 -45.92724609 228.92724609 C-72.29510639 217.13158845 -93.53697775 193.43362359 -103.92285156 166.6171875 C-115.93256837 132.93040576 -116.7685125 97.16192604 -101.4453125 64.328125 C-87.51521671 36.08015238 -65.4935194 14.51576414 -35.4375 4.1875 C-23.67159415 0.49623542 -12.2947118 -0.58208561 0 0 Z " fill="#160297" transform="translate(261,0)"/>
</svg>
